<svg id="圖層_1" data-name="圖層 1" xmlns="http://www.w3.org/2000/svg" viewBox="0 0 189.99 19.94">
  <defs>
    <style>
      .cls-1 {
        fill: #3e5c44;
      }
    </style>
  </defs>
  <title>check</title>
  <path class="cls-1" d="M180,0a10,10,0,0,0-10,9.5H105a10,10,0,0,0-20,0H20a10,10,0,1,0,0,1H85a10,10,0,0,0,20,0H170A10,10,0,1,0,180,0ZM8.51,14.55l-.71.71-.7-.71L3.26,10.71,4.67,9.3,7.8,12.43,15.24,5l1.41,1.41Zm85,0-.71.71-.7-.71-3.84-3.84L89.67,9.3l3.13,3.13L100.24,5l1.41,1.41Zm85,0-.71.71-.7-.71-3.84-3.84,1.41-1.41,3.13,3.13L185.24,5l1.41,1.41Z"/>
</svg>
