<svg id="圖層_1" data-name="圖層 1" xmlns="http://www.w3.org/2000/svg" viewBox="0 0 189.99 48.94">
  <defs>
    <style>
      .cls-1 {
        fill: #3e5c44;
      }
    </style>
  </defs>
  <title>success</title>
  <g>
    <path class="cls-1" d="M12,16.42l.46.14.61.22a2.2,2.2,0,0,1,.53.28.46.46,0,0,1,.21.36.57.57,0,0,1-.26.5.53.53,0,0,0-.26.49V44.87c0,.35-.26.63-.76.86a9.39,9.39,0,0,1-1.74.54,14.72,14.72,0,0,1-1.9.31c-.61.06-1.05.1-1.3.1a.42.42,0,0,1-.48-.48V25.59a8.36,8.36,0,0,1,.07-.86l.15-1c0-.35.07-.68.09-1a2.11,2.11,0,0,0-.07-.76l-.1,0a.16.16,0,0,0-.09,0,3.2,3.2,0,0,0-.74.57L5,23.73q-.79.72-1.59,1.38a4.82,4.82,0,0,1-1.16.81L2,25.78a5.84,5.84,0,0,1,.28-.72c.16-.34.34-.72.53-1.14l.54-1.16c.18-.36.31-.64.41-.83a81.58,81.58,0,0,0,2.92-7.7Q8,10.35,9.16,6.35c0-.16.11-.45.22-.88s.23-.87.35-1.33.26-.87.38-1.23a1.49,1.49,0,0,1,.34-.65l.16-.07a.77.77,0,0,0,.17-.07,7.23,7.23,0,0,1,1.57.36c.79.24,1.6.51,2.44.81s1.59.61,2.26.92,1,.57,1,.76a2.94,2.94,0,0,1-.45,1q-.47.76-1.14,1.83L15,10.05q-.81,1.25-1.5,2.43c-.46.79-.84,1.52-1.16,2.18a4,4,0,0,0-.48,1.57Zm4.14-1.28H31l.16,0a.41.41,0,0,0,.17.05l.09.14a5.24,5.24,0,0,1-1.11.1l-2.52.09-3.25.1c-1.18,0-2.3.06-3.38.07l-2.82,0c-.81,0-1.36,0-1.64,0H16.1c-.25,0-.38-.11-.38-.33a.28.28,0,0,1,.09-.19Zm2.51,6c-.06-.06-.08-.12,0-.16a.24.24,0,0,1,.14-.1l.21-.05.17,0a7,7,0,0,1,3,.74A11.44,11.44,0,0,1,25,23.45a11,11,0,0,1,2.17,2.66A5.8,5.8,0,0,1,28,29.05a3.64,3.64,0,0,1-.69,2.28,2.53,2.53,0,0,1-2.16.91,2.32,2.32,0,0,1-1.45-.5,5.76,5.76,0,0,1-1.16-1.24,9.53,9.53,0,0,1-.9-1.54c-.26-.54-.46-1-.62-1.43-.44-1-.86-2.1-1.24-3.18ZM32.44,3.36c0-.32.12-.48.38-.48a25.35,25.35,0,0,1,3.35.22q1.68.21,3.3.54a.81.81,0,0,0,.28.07.2.2,0,0,1,.19.22.8.8,0,0,1-.42.62.75.75,0,0,0-.43.61v8.12a.67.67,0,0,0,.07.27.23.23,0,0,0,.21.16,1,1,0,0,0,.83-.47,7.19,7.19,0,0,0,.57-1.07l.5-1.12c.16-.35.37-.54.62-.57a3.42,3.42,0,0,1,.76.62c.44.41.93.88,1.45,1.4s1,1,1.5,1.55a10.59,10.59,0,0,0,.95.94l.14.34c0,.19-.08.28-.24.28h-7a.42.42,0,0,0-.47.48v25a3.79,3.79,0,0,1-.86,2.47A6.49,6.49,0,0,1,36,45.23a11.44,11.44,0,0,1-2.71,1,13.25,13.25,0,0,1-2.64.31.43.43,0,0,1-.38-.24,2.51,2.51,0,0,1-.23-.57c-.07-.22-.12-.45-.17-.67l-.12-.52a5.47,5.47,0,0,0-1.31-2.42,21.63,21.63,0,0,0-2.06-1.85L26.05,40a.45.45,0,0,1-.17-.33c0-.13.11-.21.34-.24l.42,0h5c.19,0,.36-.15.5-.45s.24-.53.31-.69Z"/>
    <path class="cls-1" d="M57.9,33,58,33l.14-.34V29.24L58,28.91l-.34-.33-.33-.14h-7.5a.24.24,0,0,1,0-.48H64.92c.25,0,.55-.2.9-.59a14.9,14.9,0,0,0,1-1.33c.34-.49.65-.94,1-1.33s.55-.6.74-.6a2.75,2.75,0,0,1,.9.55c.47.36,1,.78,1.52,1.26s1,.93,1.46,1.35a4.83,4.83,0,0,1,.76.83l-.09.19-.33.15H64.12a.42.42,0,0,0-.48.47V42.35A2.82,2.82,0,0,1,63,44.16a6,6,0,0,1-1.61,1.4,9.36,9.36,0,0,1-2,.93,6.67,6.67,0,0,1-1.93.33c-.12,0-.22-.11-.28-.33a7.16,7.16,0,0,1-.24-1.29c0-.38-.08-.74-.14-1.09A5.93,5.93,0,0,0,56.43,43a6.82,6.82,0,0,0-.72-1.21c-.28-.35-.33-.57-.14-.66a2.47,2.47,0,0,1,.76-.22,6.47,6.47,0,0,0,1-.21.66.66,0,0,0,.48-.71V34.42a.26.26,0,0,0-.22-.28,2,2,0,0,0-.4,0c-.26,0-.56.21-.93.62a14.27,14.27,0,0,0-1.16,1.54c-.41.62-.86,1.28-1.33,2s-.95,1.37-1.43,2a9.42,9.42,0,0,1-1.45,1.54,2.17,2.17,0,0,1-1.4.62.28.28,0,0,1-.26-.14.62.62,0,0,1-.07-.29,9,9,0,0,1,.21-1.78c.15-.68.33-1.38.55-2.11s.44-1.43.64-2.11l.55-1.83a12.27,12.27,0,0,0,.28-1.29,3.53,3.53,0,0,1,.38-1.18,2,2,0,0,0,.19-.22.31.31,0,0,1,.24-.12,3.69,3.69,0,0,1,.88.26l1.5.6c.53.22,1.08.43,1.63.64a5.39,5.39,0,0,0,1.41.36ZM49.68,8.49h7l.15.14-.15.14h-7l-.14-.14Zm1.71,7.27a.7.7,0,0,1-.31-.1.31.31,0,0,1-.16-.29A2.88,2.88,0,0,1,52,15.26c.65,0,1.37,0,2.14,0s1.51,0,2.19,0l1.3,0a.42.42,0,0,0,.48-.48V2.69c0-.31.14-.47.43-.47l1.37,0c.7,0,1.4.06,2.12.14s1.35.19,1.92.31.86.29.86.48a.83.83,0,0,1-.34.54l-.52.5-.14.34c0,.38,0,.75,0,1.11s-.05.74-.05,1.12a2.13,2.13,0,0,0,.22,1,.83.83,0,0,0,.83.45,1.39,1.39,0,0,0,1.14-.54,11.09,11.09,0,0,0,.81-1.24,13.27,13.27,0,0,1,.75-1.23,1.14,1.14,0,0,1,1-.55,2.86,2.86,0,0,1,.86.57c.48.38,1,.8,1.52,1.26s1,.89,1.45,1.3.64.67.64.76c0,.29-.16.43-.48.43H64.26a.42.42,0,0,0-.47.48v5a.3.3,0,0,0,.23.31,1.47,1.47,0,0,0,.43.07,1.28,1.28,0,0,0,.88-.45,8.49,8.49,0,0,0,.86-1l.73-1c.22-.3.41-.46.57-.46a1.87,1.87,0,0,1,1.05.41,10.4,10.4,0,0,1,1.11.92c.37.35.72.71,1,1.07a9.06,9.06,0,0,0,.88.88l0,.19-.09.19-.33.15Zm.9,6c-.16,0-.23-.08-.23-.24s.07-.24.23-.24H62.65c.12,0,.35-.19.66-.57s.65-.81,1-1.28.67-.9,1-1.28.49-.57.55-.57a2.87,2.87,0,0,1,1.16.66c.59.45,1.17.93,1.74,1.45A7.82,7.82,0,0,1,70,21.15c.28.42.21.64-.24.64ZM69.34,40.45a2.12,2.12,0,0,1-.47-.09c-.22-.06-.44-.14-.66-.22a3.5,3.5,0,0,1-.62-.26,3.74,3.74,0,0,1-.43-.23.69.69,0,0,1-.19-.38,13,13,0,0,0-.43-1.74L66,35.8a15.54,15.54,0,0,1-.47-1.71,7.91,7.91,0,0,1-.19-1.76.42.42,0,0,1,.47-.47,5.45,5.45,0,0,1,2.14.47,8.11,8.11,0,0,1,2,1.28,7.34,7.34,0,0,1,1.52,1.83,4.22,4.22,0,0,1,.59,2.12,3.12,3.12,0,0,1-.69,2.09A2.53,2.53,0,0,1,69.34,40.45ZM83.22,30.29H83a12.64,12.64,0,0,0-1.44,2c-.42.73-.85,1.45-1.29,2.14q-1.74,2.85-3.81,5.72A21.64,21.64,0,0,1,71.72,45a2.77,2.77,0,0,1-.55.36,8.4,8.4,0,0,1-1,.47,3.91,3.91,0,0,1-.88.29c-.25,0-.38-.06-.38-.31a.83.83,0,0,1,.15-.43c.5-.79,1-1.55,1.54-2.28s1-1.5,1.5-2.32a45.43,45.43,0,0,0,3-6.08A41.09,41.09,0,0,0,77,28.65a49.34,49.34,0,0,0,1-6.27c.19-2.14.28-4.39.28-6.77a.82.82,0,0,0,0-.21c0-.08,0-.12-.12-.12s-.6.3-1.14.9-1.12,1.28-1.76,2S74,19.69,73.36,20.34a3.67,3.67,0,0,1-1.5,1.11l-.14-.14a6.39,6.39,0,0,1,.42-1.64c.23-.55.43-1.08.62-1.59A58,58,0,0,0,74.61,12Q75.36,8.86,76,5.73c.09-.47.18-1,.26-1.47a5.83,5.83,0,0,1,.4-1.42.48.48,0,0,1,.47-.38,5.85,5.85,0,0,1,1.3.26c.65.17,1.33.37,2,.59A16.08,16.08,0,0,1,82.34,4c.55.26.83.45.83.57A.37.37,0,0,1,83,4.9a2.49,2.49,0,0,0-.23.22,7.18,7.18,0,0,0-1.26,1.52,11.88,11.88,0,0,0-1,1.8,18.08,18.08,0,0,0-.71,2l-.6,1.9,0,.19c.1.28.25.42.46.42h.68a29.7,29.7,0,0,0,3-.14c1-.09,2-.16,3-.19l.33-.14,2.23-2.23.34-.15h.28l.33.15c.13.16.38.43.76.81s.79.77,1.22,1.18.8.8,1.14,1.17.49.59.49.69a.26.26,0,0,1-.14.23l-.24.19a18.14,18.14,0,0,0-3.42,3c-.57.67-1.13,1.37-1.68,2.12a11.35,11.35,0,0,1-1.88,2s0,0,0,0,0,0,0,0a.21.21,0,0,1-.15-.23,7.63,7.63,0,0,1,.27-1.83q.26-1.06.54-2.16c.19-.73.35-1.41.48-2.05a4.38,4.38,0,0,0,.09-1.47.8.8,0,0,0-.4-.54,2,2,0,0,0-.71-.22,4.67,4.67,0,0,0-.84,0c-.28,0-.52,0-.71,0a2.63,2.63,0,0,0-.83.14.63.63,0,0,0-.4.67,50.58,50.58,0,0,0,.28,5.22,42.51,42.51,0,0,0,.93,5.47,37.69,37.69,0,0,0,1.66,5.25,19.46,19.46,0,0,0,2.54,4.53,7.83,7.83,0,0,0,1.12,1.09l1.59,1.38c.54.48,1,.94,1.42,1.38a1.81,1.81,0,0,1,.62,1.09c0,.07-.16.25-.5.55l-1.11,1c-.42.36-.81.72-1.19,1.06a6.1,6.1,0,0,0-.71.72,3.07,3.07,0,0,0-.38.78c-.16.4-.33.8-.5,1.21s-.34.79-.5,1.12-.27.5-.33.5a.33.33,0,0,1-.24-.1,8.41,8.41,0,0,1-1.38-3c-.41-1.38-.8-2.85-1.16-4.44s-.72-3.13-1.07-4.65a28.86,28.86,0,0,0-1-3.66Z"/>
    <path class="cls-1" d="M100.69,10.1c0-.31.13-.47.38-.47a4.62,4.62,0,0,1,1.67.4c.66.27,1.37.56,2.11.88s1.5.61,2.28.88a6.72,6.72,0,0,0,2.21.4c1.55,0,3.09,0,4.61,0s3,0,4.6,0c.26,0,.38.11.38.33s-.12.33-.38.33h-11a.42.42,0,0,0-.47.48c0,1.52,0,3.16,0,4.91s0,3.56-.09,5.39-.23,3.68-.45,5.51a43.61,43.61,0,0,1-1,5.35,26.34,26.34,0,0,1-1.78,4.87,15.63,15.63,0,0,1-2.83,4c-.13.13-.37.34-.73.64s-.75.61-1.14.91a11.88,11.88,0,0,1-1.17.78,2,2,0,0,1-.81.33.24.24,0,0,1-.28-.28A2.27,2.27,0,0,1,97,45c.15-.33.3-.71.48-1.12s.34-.79.5-1.14l.33-.76a23.15,23.15,0,0,0,.9-2.61c.29-1,.54-2,.76-3s.4-2,.52-3a21.83,21.83,0,0,0,.19-2.76Zm14.54,8c.12.13.42.39.88.79l1.42,1.23c.49.43.94.82,1.33,1.19s.6.58.6.64-.06.14-.17.24l-.38.33c-.14.13-.28.25-.4.38a1,1,0,0,0-.24.33,6.82,6.82,0,0,0-.12,1c0,.4,0,.81-.05,1.24s0,.85,0,1.26,0,.77,0,1.09c-.06,1-.15,2.06-.26,3.13a15.06,15.06,0,0,1-.64,3.07,10,10,0,0,1-1.38,2.7,6.92,6.92,0,0,1-2.42,2.07c-.45.22-.9.42-1.38.6a6.69,6.69,0,0,1-1.42.35.5.5,0,0,1-.57-.43,2.83,2.83,0,0,1-.15-.59c0-.21-.06-.4-.09-.59-.06-.38-.13-.71-.19-1a4.46,4.46,0,0,0-.24-.73c-.09-.22-.21-.45-.33-.69s-.3-.53-.52-.88a.87.87,0,0,1-.19-.43c0-.06.12-.15.35-.26l.81-.36.85-.35a3.69,3.69,0,0,0,.55-.26,2.05,2.05,0,0,0,.83-1.29c.11-.53.2-1.06.26-1.56.16-1.36.31-2.72.45-4.06a36.74,36.74,0,0,0,.22-4.07.89.89,0,0,0-.19-.49.54.54,0,0,0-.43-.27h-3.61c-.25,0-.39-.07-.43-.23a1.2,1.2,0,0,1,.57-.15l1.1-.09c.41,0,.81-.08,1.21-.14a6.22,6.22,0,0,0,1-.24,5.46,5.46,0,0,0,1.52-1.14l1.38-1.38.28-.09ZM126.82,3.22l-.1.28-1,1-.14.33q0,.81,0,1.56c0,.51,0,1,0,1.57a56.77,56.77,0,0,0,.4,6.79q.4,3.38,1,6.8c0,.19.08.59.16,1.21s.18,1.26.29,1.92a14.79,14.79,0,0,0,.38,1.76c.14.51.29.76.45.76s.16-.13.31-.38.23-.41.26-.48A18.73,18.73,0,0,0,129.83,23c.3-1.28.58-2.45.84-3.49.09-.45.18-.87.26-1.29a7.1,7.1,0,0,1,.35-1.23h.19c.41.16.82.33,1.21.52a11.86,11.86,0,0,0,1.26.52c.73.26,1.48.48,2.24.67a10.58,10.58,0,0,1,2.18.81,1.83,1.83,0,0,0,.24.19.28.28,0,0,1,.14.23s-.06.09-.17.17-.23.17-.38.26l-.4.29a1.91,1.91,0,0,0-.24.19,3.31,3.31,0,0,0-.52.95c-.16.41-.3.76-.43,1-.31.67-.65,1.32-1,2l-1.05,1.9c-.54.95-1.12,1.88-1.76,2.8a15.33,15.33,0,0,0-1.56,2.9,3.74,3.74,0,0,0,.64,1.45,11.73,11.73,0,0,0,1.28,1.61,8.58,8.58,0,0,0,1.54,1.33,2.67,2.67,0,0,0,1.48.55,1.62,1.62,0,0,0,1.3-.69,9.42,9.42,0,0,0,1-1.52c.28-.55.53-1.06.73-1.52s.42-.69.64-.69a.23.23,0,0,1,.24.19,1.45,1.45,0,0,1,.05.29,11.75,11.75,0,0,1-.33,2.78,11.12,11.12,0,0,0-.34,2.77,3.48,3.48,0,0,0,.22,1.26c.14.4.29.8.45,1.21s.31.82.45,1.22a3.69,3.69,0,0,1,.21,1.25,1.81,1.81,0,0,1-.28,1.07,1.91,1.91,0,0,1-.71.62,2.78,2.78,0,0,1-1,.26c-.36,0-.72,0-1.07,0a7.79,7.79,0,0,1-2.78-.5A10.52,10.52,0,0,1,132.52,44a14.48,14.48,0,0,1-2.12-1.88A20.42,20.42,0,0,1,128.62,40c-.25-.35-.49-.71-.71-1.09s-.46-.75-.71-1.1a.72.72,0,0,0-.57-.23,2.59,2.59,0,0,0-1.26.57c-.55.38-1.2.84-1.92,1.4s-1.51,1.16-2.33,1.83-1.65,1.27-2.47,1.82a23.14,23.14,0,0,1-2.35,1.41,4.46,4.46,0,0,1-2,.57.79.79,0,0,1-.24,0,.18.18,0,0,1-.14-.19c0-.19.25-.52.76-1s1.14-1,1.92-1.61,1.61-1.31,2.49-2.07,1.72-1.54,2.5-2.35a17.53,17.53,0,0,0,1.92-2.37,4.05,4.05,0,0,0,.76-2.21,9.78,9.78,0,0,0-.43-2.92,24.47,24.47,0,0,0-1-2.78l-1.18-2.76a13.56,13.56,0,0,1-.88-2.8,58.13,58.13,0,0,1-1.12-9.55c-.11-3.19-.17-6.41-.17-9.64a.42.42,0,0,1,.48-.47c1.11,0,2.22,0,3.35.16s2.24.27,3.35.45Zm9.64,5.7a7.41,7.41,0,0,0,.95.71c.44.28.89.58,1.33.9a10.75,10.75,0,0,1,1.16,1,1.3,1.3,0,0,1,.5.9c0,.07,0,.11-.14.14a.57.57,0,0,1-.24.05h-13a.21.21,0,0,1-.24-.23.21.21,0,0,1,.24-.24h4.18c.12,0,.27-.1.45-.29a7.19,7.19,0,0,0,.52-.64,4,4,0,0,0,.43-.74,3.56,3.56,0,0,0,.21-.57,2.09,2.09,0,0,0-.52-1.37c-.41-.6-.88-1.21-1.4-1.83s-1-1.21-1.48-1.78a3.1,3.1,0,0,1-.73-1.29c-.07-.18,0-.28.24-.28.88,0,1.78,0,2.68.1a7.48,7.48,0,0,1,2.42.54,3.84,3.84,0,0,1,1.71,1.4,4.61,4.61,0,0,1,.6,2.71,1.09,1.09,0,0,1,0,.26,2.11,2.11,0,0,0,0,.26Z"/>
    <path class="cls-1" d="M143.87,32.43q0-.15.21-.24a4.44,4.44,0,0,1,.48-.17,3.15,3.15,0,0,1,.52-.09l.4,0,.93-.19c.46-.09,1-.21,1.47-.35s1-.28,1.43-.41a3.56,3.56,0,0,0,.78-.28,3,3,0,0,0,.31-.36.72.72,0,0,0,.17-.45V10.53c0-.32-.3-.49-.88-.52a15.73,15.73,0,0,0-1.93,0c-.69.05-1.33.07-1.92.07S145,10,145,9.68a.27.27,0,0,1,.19-.1H155.6a1.4,1.4,0,0,0,1.05-.52,6.14,6.14,0,0,0,.85-1.24l.76-1.4A4.94,4.94,0,0,1,159,5.35l.24,0a11,11,0,0,1,.93.69c.49.4,1,.84,1.54,1.33s1,1,1.5,1.43a4.25,4.25,0,0,1,.78.93c0,.18-.23.3-.59.35a9.49,9.49,0,0,1-1.38.05L160.26,10c-.64,0-1.23,0-1.78,0a6.54,6.54,0,0,0-1.38.12c-.37.08-.55.23-.55.45V28.15a.42.42,0,0,0,.48.48,4.4,4.4,0,0,0,1.56-.29l1.52-.59,1.52-.6a4.44,4.44,0,0,1,1.57-.28.21.21,0,0,1,.24.24.67.67,0,0,1-.24.38q-.33.29-1.59,1.23c-.84.64-1.82,1.36-2.94,2.19l-3.59,2.59q-1.91,1.35-3.54,2.47c-1.09.74-2,1.36-2.78,1.85a6.39,6.39,0,0,1-1.28.73.3.3,0,0,1-.24-.12l-.19-.21a6.47,6.47,0,0,1-.62-1c-.18-.37-.36-.71-.52-1-.35-.64-.69-1.27-1-1.9S144.22,33.06,143.87,32.43ZM154.65,46a1.76,1.76,0,0,1,.55-.71l.69-.67c.66-.66,1.32-1.36,2-2.09s1.26-1.47,1.83-2.23a33.47,33.47,0,0,0,4.79-8.64,44.67,44.67,0,0,0,2.28-9,65.88,65.88,0,0,0,.69-9.39c0-3.19,0-6.46,0-9.78A.42.42,0,0,1,168,3a36.24,36.24,0,0,1,6.79.67l.24.19a3.57,3.57,0,0,1-.55.67,2.15,2.15,0,0,0-.49.66,5.65,5.65,0,0,0-.17,1.28q-.08,1.05-.12,2.28c0,.83-.05,1.61-.05,2.35v1.55c0,.44,0,.88.05,1.3a5.77,5.77,0,0,1-.05,1.31c0,.13-.07.25-.11.38a2.78,2.78,0,0,0-.12.38c-.07.25-.12.51-.17.76s-.1.51-.17.76a16.77,16.77,0,0,0-.14,2.73A13.3,13.3,0,0,1,172.7,23a28.5,28.5,0,0,1-5.89,13.9,33.05,33.05,0,0,1-12,9.19Zm11.54-30.73a2.88,2.88,0,0,1-.78.17c-.4,0-.83.08-1.31.09s-.92,0-1.35,0h-1.26c-.13,0-.19-.07-.19-.23s.08-.19.24-.19h4A1.27,1.27,0,0,1,166.19,15.28Zm8.32-.24q.13-.13.78-.12l1.38.05,1.45,0a2.8,2.8,0,0,0,1-.12,2.85,2.85,0,0,0,1-.69c.38-.36.75-.74,1.11-1.12l1-1a2,2,0,0,1,.8-.57,8.83,8.83,0,0,1,1,.83l1.64,1.45c.57.51,1.08,1,1.52,1.42a3.5,3.5,0,0,1,.67.76.3.3,0,0,1-.19.31l-.48.15a1.78,1.78,0,0,0-.54.21.93.93,0,0,0-.41.52,5.09,5.09,0,0,0-.14,1.07c0,.52-.06,1.1-.07,1.73s0,1.24-.05,1.81,0,1,0,1.28c-.07,1-.12,2-.17,3s-.1,2-.16,3-.19,2.37-.29,3.69a31.61,31.61,0,0,1-.52,3.89,24.5,24.5,0,0,1-1,3.73,11.21,11.21,0,0,1-1.75,3.16,8.2,8.2,0,0,1-2.74,2.18,8.45,8.45,0,0,1-3.91.83.42.42,0,0,1-.38-.28,2.54,2.54,0,0,1-.22-.64c0-.24-.09-.49-.14-.74s-.09-.44-.12-.57a3.58,3.58,0,0,0-.59-1.14c-.24-.28-.49-.54-.74-.78l-.78-.74a3.61,3.61,0,0,1-.74-1c-.09-.16-.13-.26-.09-.29.09-.19.34-.31.76-.35a11.15,11.15,0,0,1,1.35-.08c.49,0,1,0,1.43,0s.79,0,1,0a1.51,1.51,0,0,0,1.25-.88,8.45,8.45,0,0,0,.93-2.23,26,26,0,0,0,.64-3c.18-1.11.32-2.17.43-3.2s.19-2,.24-2.78.08-1.43.12-1.81q.13-2.56.33-5.13c.13-1.71.19-3.42.19-5.13,0-.31-.26-.47-.79-.47s-1.12,0-1.8.09a19.25,19.25,0,0,1-2,.1A1.46,1.46,0,0,1,174.51,15Z"/>
  </g>
</svg>
